<?xml version="1.0" encoding="UTF-8"?>
<!DOCTYPE svg PUBLIC "-//W3C//DTD SVG 1.1//EN" "http://www.w3.org/Graphics/SVG/1.1/DTD/svg11.dtd">
<svg xmlns="http://www.w3.org/2000/svg" version="1.1" width="38px" height="44px" style="shape-rendering:geometricPrecision; text-rendering:geometricPrecision; image-rendering:optimizeQuality; fill-rule:evenodd; clip-rule:evenodd" xmlns:xlink="http://www.w3.org/1999/xlink">
<g><path style="opacity:1" fill="#3d945d" d="M 7.5,14.5 C 7.36199,10.7139 6.69532,10.7139 5.5,14.5C 3.5,14.5 1.5,14.5 -0.5,14.5C -0.5,14.1667 -0.5,13.8333 -0.5,13.5C 3.78517,13.3859 6.45184,11.2192 7.5,7C 8.44802,6.51722 9.44802,6.35055 10.5,6.5C 10.5,9.16667 10.5,11.8333 10.5,14.5C 9.5,14.5 8.5,14.5 7.5,14.5 Z"/></g>
<g><path style="opacity:1" fill="#449e65" d="M 27.5,13.5 C 25.8712,12.3747 24.3712,11.0414 23,9.5C 22.5065,11.1341 22.3398,12.8008 22.5,14.5C 18.8333,14.5 15.1667,14.5 11.5,14.5C 11.5,11.8333 11.5,9.16667 11.5,6.5C 15.1817,6.3347 18.8484,6.50137 22.5,7C 24.7899,8.77717 26.4566,10.9438 27.5,13.5 Z"/></g>
<g><path style="opacity:1" fill="#d9dde6" d="M 27.5,13.5 C 26.0813,14.4511 24.4147,14.7845 22.5,14.5C 22.3398,12.8008 22.5065,11.1341 23,9.5C 24.3712,11.0414 25.8712,12.3747 27.5,13.5 Z"/></g>
<g><path style="opacity:1" fill="#d9dde6" d="M 7.5,14.5 C 6.83333,14.5 6.16667,14.5 5.5,14.5C 6.69532,10.7139 7.36199,10.7139 7.5,14.5 Z"/></g>
<g><path style="opacity:1" fill="#378a56" d="M 37.5,13.5 C 37.5,13.8333 37.5,14.1667 37.5,14.5C 34.4281,14.8174 31.4281,14.4841 28.5,13.5C 31.537,12.2588 34.537,12.2588 37.5,13.5 Z"/></g>
<g><path style="opacity:1" fill="#d7dbe5" d="M 22.5,15.5 C 24.1667,15.5 25.8333,15.5 27.5,15.5C 27.5,17.1667 27.5,18.8333 27.5,20.5C 24.8333,19.8333 23.1667,18.1667 22.5,15.5 Z"/></g>
<g><path style="opacity:1" fill="#4a9f67" d="M -0.5,15.5 C 1.5,15.5 3.5,15.5 5.5,15.5C 5.60506,20.6598 6.27173,20.6598 7.5,15.5C 8.5,15.5 9.5,15.5 10.5,15.5C 10.8205,20.6946 10.4872,25.6946 9.5,30.5C 9.98537,25.8415 8.15204,24.5081 4,26.5C 3.50999,27.7932 3.34332,29.1266 3.5,30.5C 2.04125,30.5674 0.707917,30.2341 -0.5,29.5C -0.5,24.8333 -0.5,20.1667 -0.5,15.5 Z"/></g>
<g><path style="opacity:1" fill="#d2d7e2" d="M 5.5,15.5 C 6.16667,15.5 6.83333,15.5 7.5,15.5C 6.27173,20.6598 5.60506,20.6598 5.5,15.5 Z"/></g>
<g><path style="opacity:1" fill="#47a268" d="M 22.5,15.5 C 23.1667,18.1667 24.8333,19.8333 27.5,20.5C 27.5,23.8333 27.5,27.1667 27.5,30.5C 22.1667,30.5 16.8333,30.5 11.5,30.5C 11.5,27.5 11.5,24.5 11.5,21.5C 13.1667,21.5 14.8333,21.5 16.5,21.5C 16.5,20.5 16.5,19.5 16.5,18.5C 14.8333,18.5 13.1667,18.5 11.5,18.5C 11.5,17.5 11.5,16.5 11.5,15.5C 15.1667,15.5 18.8333,15.5 22.5,15.5 Z"/></g>
<g><path style="opacity:1" fill="#d9dde6" d="M 11.5,18.5 C 13.1667,18.5 14.8333,18.5 16.5,18.5C 16.5,19.5 16.5,20.5 16.5,21.5C 14.8333,21.5 13.1667,21.5 11.5,21.5C 11.5,20.5 11.5,19.5 11.5,18.5 Z"/></g>
<g><path style="opacity:1" fill="#dadee6" d="M 17.5,18.5 C 20.0217,18.1281 22.0217,18.9614 23.5,21C 21.5273,21.4955 19.5273,21.6621 17.5,21.5C 17.5,20.5 17.5,19.5 17.5,18.5 Z"/></g>
<g><path style="opacity:1" fill="#47a067" d="M 37.5,15.5 C 37.5,19.5 37.5,23.5 37.5,27.5C 36.5,27.5 35.5,27.5 34.5,27.5C 32.9007,25.2712 30.9007,24.9378 28.5,26.5C 28.5,22.8333 28.5,19.1667 28.5,15.5C 31.5,15.5 34.5,15.5 37.5,15.5 Z"/></g>
<g><path style="opacity:1" fill="#434343" d="M 9.5,30.5 C 7.5,31.8333 5.5,31.8333 3.5,30.5C 3.34332,29.1266 3.50999,27.7932 4,26.5C 8.15204,24.5081 9.98537,25.8415 9.5,30.5 Z"/></g>
<g><path style="opacity:1" fill="#434343" d="M 34.5,27.5 C 34.5,28.5 34.5,29.5 34.5,30.5C 30.2007,32.5936 28.2007,31.2602 28.5,26.5C 30.9007,24.9378 32.9007,25.2712 34.5,27.5 Z"/></g>
<g><path style="opacity:1" fill="#dddedd" d="M 5.5,27.5 C 7.33702,27.6395 7.67036,28.3061 6.5,29.5C 5.70245,29.0431 5.36912,28.3764 5.5,27.5 Z"/></g>
<g><path style="opacity:1" fill="#dddedd" d="M 30.5,27.5 C 32.337,27.6395 32.6704,28.3061 31.5,29.5C 30.7025,29.0431 30.3691,28.3764 30.5,27.5 Z"/></g>
<g><path style="opacity:1" fill="#a7b8be" d="M 34.5,27.5 C 35.5,27.5 36.5,27.5 37.5,27.5C 37.5,28.1667 37.5,28.8333 37.5,29.5C 36.609,30.1098 35.609,30.4431 34.5,30.5C 34.5,29.5 34.5,28.5 34.5,27.5 Z"/></g>
</svg>
